<?xml version="1.0" encoding="utf-8"?>
<!-- Generator: Adobe Illustrator 23.0.2, SVG Export Plug-In . SVG Version: 6.00 Build 0)  -->
<svg version="1.1" id="Layer_1" xmlns="http://www.w3.org/2000/svg" xmlns:xlink="http://www.w3.org/1999/xlink" x="0px" y="0px"
	 viewBox="0 0 24 24" style="enable-background:new 0 0 24 24;" xml:space="preserve">
<style type="text/css">
	.st0{fill:#FFFFFF;}
	.st1{fill:#FFA8A8;}
</style>
<rect x="9.7" y="6.6" class="st0" width="4.7" height="11.5"/>
<path class="st1" d="M21.2,15.4l-5.9-9.9c-0.8-1.3-2-2-3.3-2s-2.5,0.7-3.3,2l-5.9,9.9C2,16.7,2,18.1,2.6,19.2C3.2,20.4,4.5,21,6,21
	h12c1.5,0,2.8-0.6,3.4-1.8C22,18.1,22,16.7,21.2,15.4z M12,17.5c-0.9,0-1.6-0.7-1.6-1.5c0-0.9,0.7-1.6,1.6-1.6s1.6,0.7,1.6,1.6
	C13.6,16.9,12.9,17.5,12,17.5z M13.6,10.1l-1.4,3.5c0,0.1-0.1,0.2-0.2,0.2s-0.2-0.1-0.2-0.2l-1.4-3.4c-0.1-0.2-0.1-0.4-0.1-0.7
	c0-1,0.8-1.8,1.8-1.8s1.8,0.8,1.8,1.8C13.8,9.7,13.7,9.9,13.6,10.1z"/>
</svg>
