<?xml version="1.0" encoding="utf-8"?>
<!-- Generated by IcoMoon.io -->
<!DOCTYPE svg PUBLIC "-//W3C//DTD SVG 1.1//EN" "http://www.w3.org/Graphics/SVG/1.1/DTD/svg11.dtd">
<svg version="1.1" xmlns="http://www.w3.org/2000/svg" xmlns:xlink="http://www.w3.org/1999/xlink" width="16" height="16" viewBox="0 0 16 16">
<path d="M12.668 11.765c-0.834-1.029-1.335-2.337-1.335-3.765s0.501-2.737 1.335-3.766c0.831 1.029 1.332 2.339 1.332 3.766s-0.501 2.735-1.332 3.765zM8 14c-1.405 0-2.696-0.487-3.719-1.297 1.069-1.274 1.719-2.91 1.719-4.703s-0.65-3.43-1.719-4.704c1.023-0.809 2.313-1.296 3.719-1.296s2.695 0.487 3.718 1.296c-1.068 1.274-1.718 2.911-1.718 4.704s0.65 3.429 1.718 4.703c-1.023 0.81-2.313 1.297-3.718 1.297zM2 8c0-1.427 0.5-2.736 1.332-3.766 0.833 1.029 1.335 2.338 1.335 3.766s-0.501 2.737-1.335 3.765c-0.832-1.030-1.332-2.339-1.332-3.765zM8 0.667c-2.249 0-4.26 1.015-5.605 2.609-0.005 0.006-0.011 0.011-0.016 0.017-1.068 1.274-1.713 2.915-1.713 4.707s0.645 3.433 1.713 4.707c0.005 0.006 0.011 0.011 0.016 0.017 1.345 1.595 3.355 2.61 5.605 2.61 4.050 0 7.333-3.283 7.333-7.333s-3.283-7.333-7.333-7.333z"></path>
</svg>
