<?xml version="1.0" encoding="utf-8"?>
<!-- Generated by IcoMoon.io -->
<!DOCTYPE svg PUBLIC "-//W3C//DTD SVG 1.1//EN" "http://www.w3.org/Graphics/SVG/1.1/DTD/svg11.dtd">
<svg version="1.1" xmlns="http://www.w3.org/2000/svg" xmlns:xlink="http://www.w3.org/1999/xlink" width="16" height="16" viewBox="0 0 16 16">
<path d="M12.5 12.046c-0.967-1.101-2.297-1.883-3.833-2.046v-1.333h5.355c-0.137 1.305-0.691 2.455-1.522 3.379v0zM8.667 11.333c1.143 0.157 2.123 0.772 2.847 1.601-0.828 0.591-1.781 0.955-2.847 1.066v-2.667zM4.486 12.934c0.723-0.829 1.704-1.444 2.847-1.601v2.667c-1.065-0.111-2.019-0.475-2.847-1.066v0zM1.977 8.667h5.356v1.333c-1.537 0.163-2.867 0.945-3.833 2.046-0.831-0.925-1.386-2.074-1.523-3.379v0zM3.499 3.954c0.967 1.101 2.297 1.883 3.834 2.046v1.333h-5.356c0.137-1.305 0.691-2.455 1.522-3.379v0zM7.333 4.667c-1.143-0.157-2.124-0.772-2.847-1.601 0.828-0.591 1.782-0.955 2.847-1.066v2.667zM11.513 3.066c-0.723 0.829-1.704 1.444-2.847 1.601v-2.667c1.065 0.111 2.019 0.475 2.847 1.066v0zM14.022 7.333h-5.355v-1.333c1.536-0.163 2.867-0.945 3.833-2.046 0.831 0.925 1.385 2.074 1.522 3.379v0zM8 0.667c-4.050 0-7.333 3.283-7.333 7.333s3.283 7.333 7.333 7.333c4.050 0 7.333-3.283 7.333-7.333s-3.283-7.333-7.333-7.333v0z"></path>
</svg>
