<?xml version="1.0" encoding="utf-8"?>
<!-- Generated by IcoMoon.io -->
<!DOCTYPE svg PUBLIC "-//W3C//DTD SVG 1.1//EN" "http://www.w3.org/Graphics/SVG/1.1/DTD/svg11.dtd">
<svg version="1.1" xmlns="http://www.w3.org/2000/svg" xmlns:xlink="http://www.w3.org/1999/xlink" width="16" height="16" viewBox="0 0 16 16">
<path d="M8 7.059l-3.532-3.532c-0.256-0.256-0.679-0.257-0.939 0.002-0.262 0.262-0.261 0.68-0.002 0.939l3.532 3.532-3.532 3.532c-0.256 0.256-0.257 0.679 0.002 0.939 0.262 0.262 0.68 0.261 0.939 0.002l3.532-3.532 3.532 3.532c0.256 0.256 0.679 0.257 0.939-0.002 0.262-0.262 0.261-0.68 0.002-0.939l-3.532-3.532 3.532-3.532c0.256-0.256 0.257-0.679-0.002-0.939-0.262-0.262-0.68-0.261-0.939-0.002l-3.532 3.532z"></path>
</svg>
