<?xml version="1.0" encoding="utf-8"?>
<!-- Generated by IcoMoon.io -->
<!DOCTYPE svg PUBLIC "-//W3C//DTD SVG 1.1//EN" "http://www.w3.org/Graphics/SVG/1.1/DTD/svg11.dtd">
<svg version="1.1" xmlns="http://www.w3.org/2000/svg" xmlns:xlink="http://www.w3.org/1999/xlink" width="16" height="16" viewBox="0 0 16 16">
<path d="M11.461 11.462c-1.637 1.637-3.813 2.538-6.128 2.538-0.965 0-1.919-0.164-2.847-0.489-0.323-0.925-0.487-1.881-0.487-2.845 0-4.779 3.887-8.667 8.667-8.667 0.963 0 1.919 0.164 2.845 0.488 0.324 0.926 0.489 1.882 0.489 2.845 0 2.315-0.902 4.492-2.539 6.129v0zM14.653 1.729c-0.067-0.175-0.205-0.315-0.38-0.381-1.167-0.452-2.381-0.681-3.606-0.681-5.515 0-10 4.485-10 10 0 1.226 0.228 2.439 0.679 3.605 0.069 0.175 0.207 0.313 0.381 0.381 1.167 0.451 2.381 0.681 3.607 0.681 2.67 0 5.182-1.040 7.071-2.929s2.929-4.401 2.929-7.071c0-1.224-0.229-2.438-0.681-3.605v0zM9.862 4.253c-0.261-0.261-0.683-0.261-0.943 0-0.261 0.26-0.261 0.682 0 0.943l0.471 0.472-1.391 1.39-0.707-0.707c-0.261-0.261-0.683-0.261-0.943 0s-0.261 0.682 0 0.943l0.707 0.708-1.391 1.39-0.471-0.471c-0.261-0.261-0.683-0.261-0.943 0-0.261 0.26-0.261 0.682 0 0.943l1.885 1.885c0.259 0.261 0.682 0.259 0.943 0 0.26-0.261 0.26-0.683 0-0.943l-0.471-0.471 1.391-1.391 0.707 0.706c0.304 0.303 0.729 0.214 0.943 0 0.261-0.26 0.261-0.682 0-0.943l-0.707-0.706 1.391-1.391 0.471 0.471c0.311 0.312 0.739 0.202 0.943 0 0.26-0.26 0.26-0.683 0-0.943l-1.885-1.885z"></path>
</svg>
