<?xml version="1.0" encoding="utf-8"?>
<!-- Generated by IcoMoon.io -->
<!DOCTYPE svg PUBLIC "-//W3C//DTD SVG 1.1//EN" "http://www.w3.org/Graphics/SVG/1.1/DTD/svg11.dtd">
<svg version="1.1" xmlns="http://www.w3.org/2000/svg" xmlns:xlink="http://www.w3.org/1999/xlink" width="16" height="16" viewBox="0 0 16 16">
<path d="M8.014 4.678c1.103 0 1.996-0.898 1.996-2.006 0-1.107-0.894-2.005-1.996-2.005s-1.996 0.898-1.996 2.005c0 1.108 0.894 2.006 1.996 2.006zM14.673 12.667h-5.018l-0.888-1.502 4.886-8.295c0.183-0.311 0.080-0.71-0.23-0.893-0.309-0.182-0.707-0.079-0.889 0.229l-4.534 7.663-4.534-7.663c-0.182-0.309-0.58-0.411-0.889-0.229-0.31 0.183-0.413 0.582-0.23 0.893l4.886 8.295-0.889 1.502h-5.018c-0.365 0-0.66 0.296-0.66 0.661v1.338c0 0.367 0.299 0.667 0.666 0.667h4.615c0.252 0 0.464-0.147 0.575-0.357l1.477-2.509 1.478 2.509c0.111 0.21 0.323 0.357 0.575 0.357h4.616c0.366 0 0.665-0.3 0.665-0.667v-1.338c0-0.365-0.295-0.661-0.66-0.661z"></path>
</svg>
